<?xml version="1.0" encoding="UTF-8" standalone="no"?>
<!DOCTYPE svg PUBLIC "-//W3C//DTD SVG 1.1//EN" "http://www.w3.org/Graphics/SVG/1.1/DTD/svg11.dtd">
<svg version="1.1" xmlns="http://www.w3.org/2000/svg" xmlns:xlink="http://www.w3.org/1999/xlink" preserveAspectRatio="xMidYMid meet" viewBox="0 0 640 640" width="120" height="120"><defs><path d="M211.77 258.35C211.77 283.71 190.59 304.3 164.5 304.3C138.41 304.3 117.23 283.71 117.23 258.35C117.23 233 138.41 212.41 164.5 212.41C190.59 212.41 211.77 233 211.77 258.35Z" id="c1Qzk8tLmJ"></path><path d="M222.81 388.47C222.81 413.83 201.63 434.42 175.54 434.42C149.45 434.42 128.27 413.83 128.27 388.47C128.27 363.12 149.45 342.53 175.54 342.53C201.63 342.53 222.81 363.12 222.81 388.47Z" id="baE4TvuAYe"></path><path d="M344.62 167.87C344.62 193.22 323.44 213.81 297.35 213.81C271.26 213.81 250.07 193.22 250.07 167.87C250.07 142.51 271.26 121.92 297.35 121.92C323.44 121.92 344.62 142.51 344.62 167.87Z" id="a2UPaFAxs"></path><path d="M344.19 419.32C344.43 419.32 344.62 419.51 344.62 419.74C344.62 420.38 343.76 420.7 343.76 420.72C343.76 420.72 343.76 420.72 343.76 420.72C343.76 420.7 342.89 420.38 342.89 419.74C342.89 419.51 343.09 419.32 343.32 419.32C343.56 419.32 343.76 419.49 343.76 419.72C343.76 419.49 343.95 419.32 344.19 419.32Z" id="b26VWw8rxf"></path><path d="M346.35 347.45C356.42 355.52 356.49 371.6 346.52 383.35C318.9 415.9 268.72 402.82 267.96 403.72C267.96 403.72 267.96 403.72 267.96 403.72C268.72 402.82 245.96 357.44 273.58 324.88C283.56 313.13 299.81 310.14 309.88 318.22C319.95 326.29 321.03 341.18 311.05 352.94C321.03 341.18 336.28 339.38 346.35 347.45Z" id="mFYFcu72H"></path><path d="M499.47 190.71C504.76 196.54 504.19 205.59 498.21 210.72C460.7 242.86 359.1 329.91 321.59 362.05C315.5 367.26 306.38 366.69 301 360.76C299.06 358.63 302.93 362.89 301 360.76C295.7 354.92 296.27 345.87 302.26 340.74C339.77 308.6 441.37 221.55 478.88 189.41C484.96 184.2 494.09 184.77 499.47 190.71C501.4 192.84 497.54 188.57 499.47 190.71Z" id="c7fEjZA0AF"></path><path d="M354.41 490.92C354.41 516.27 333.22 536.86 307.13 536.86C281.04 536.86 259.86 516.27 259.86 490.92C259.86 465.56 281.04 444.98 307.13 444.98C333.22 444.98 354.41 465.56 354.41 490.92Z" id="a8dijwHrB"></path></defs><g><g><g><use xlink:href="#c1Qzk8tLmJ" opacity="1" fill="#007704" fill-opacity="1"></use></g><g><use xlink:href="#baE4TvuAYe" opacity="1" fill="#0021ff" fill-opacity="1"></use></g><g><use xlink:href="#a2UPaFAxs" opacity="1" fill="#ff0000" fill-opacity="1"></use></g><g><use xlink:href="#b26VWw8rxf" opacity="1" fill="#cdbbe8" fill-opacity="1"></use></g><g><use xlink:href="#mFYFcu72H" opacity="1" fill="#ffffff" fill-opacity="1"></use><g><use xlink:href="#mFYFcu72H" opacity="1" fill-opacity="0" stroke="#000000" stroke-width="1" stroke-opacity="1"></use></g></g><g><use xlink:href="#c7fEjZA0AF" opacity="1" fill="#000000" fill-opacity="1"></use></g><g><use xlink:href="#a8dijwHrB" opacity="1" fill="#000000" fill-opacity="1"></use></g></g></g></svg>