<?xml version="1.0" encoding="UTF-8" standalone="no"?>
<!DOCTYPE svg PUBLIC "-//W3C//DTD SVG 1.1//EN" "http://www.w3.org/Graphics/SVG/1.1/DTD/svg11.dtd">
<svg version="1.1" xmlns="http://www.w3.org/2000/svg" xmlns:xlink="http://www.w3.org/1999/xlink" preserveAspectRatio="xMidYMid meet" viewBox="0 0 640 640" width="120" height="120"><defs><path d="M390.44 328.21L516.23 456.62L445.79 528.52L320 400.12L194.21 528.52L123.77 456.62L249.56 328.21L123.77 199.8L194.21 127.89L320 256.3L445.79 127.89L516.23 199.8L390.44 328.21Z" id="b1bDkOxC0N"></path><path d="M372.86 111.5L373.13 111.52L373.39 111.56L373.65 111.61L373.9 111.67L374.15 111.74L374.39 111.82L374.64 111.9L374.87 112L375.11 112.11L375.33 112.22L375.56 112.34L375.77 112.48L375.98 112.62L376.19 112.76L376.39 112.92L376.58 113.08L376.77 113.25L376.95 113.43L377.13 113.62L377.29 113.81L377.45 114.01L377.61 114.21L377.75 114.42L377.89 114.64L378.02 114.86L378.14 115.09L378.25 115.32L378.35 115.55L378.45 115.8L378.54 116.04L378.61 116.29L378.68 116.55L378.74 116.81L378.78 117.07L378.82 117.34L378.85 117.61L378.86 117.88L378.87 118.15L378.87 251.7L509.69 251.7L509.96 251.7L510.22 251.72L510.49 251.75L510.75 251.78L511.01 251.83L511.26 251.89L511.51 251.96L511.76 252.04L512 252.12L512.23 252.22L512.47 252.33L512.69 252.44L512.92 252.57L513.13 252.7L513.34 252.84L513.55 252.98L513.75 253.14L513.94 253.3L514.13 253.47L514.31 253.65L514.49 253.84L514.65 254.03L514.81 254.23L514.97 254.43L515.11 254.64L515.25 254.86L515.38 255.08L515.5 255.31L515.61 255.54L515.72 255.78L515.81 256.02L515.9 256.26L515.97 256.51L516.04 256.77L516.1 257.03L516.14 257.29L516.18 257.56L516.21 257.83L516.22 258.1L516.23 258.37L516.23 365.21L516.22 365.48L516.21 365.75L516.18 366.02L516.14 366.29L516.1 366.55L516.04 366.81L515.97 367.07L515.9 367.32L515.81 367.56L515.72 367.81L515.61 368.04L515.5 368.28L515.38 368.5L515.25 368.72L515.11 368.94L514.97 369.15L514.81 369.35L514.65 369.55L514.49 369.74L514.31 369.93L514.13 370.11L513.94 370.28L513.75 370.44L513.55 370.6L513.34 370.74L513.13 370.88L512.92 371.02L512.69 371.14L512.47 371.25L512.23 371.36L512 371.46L511.76 371.54L511.51 371.62L511.26 371.69L511.01 371.75L510.75 371.8L510.49 371.84L510.22 371.86L509.96 371.88L509.69 371.88L378.87 371.88L378.87 505.43L378.86 505.7L378.85 505.98L378.82 506.24L378.78 506.51L378.74 506.77L378.68 507.03L378.61 507.29L378.54 507.54L378.45 507.78L378.35 508.03L378.25 508.26L378.14 508.5L378.02 508.72L377.89 508.94L377.75 509.16L377.61 509.37L377.45 509.57L377.29 509.77L377.13 509.96L376.95 510.15L376.77 510.33L376.58 510.5L376.39 510.66L376.19 510.82L375.98 510.96L375.77 511.1L375.56 511.24L375.33 511.36L375.11 511.47L374.87 511.58L374.64 511.68L374.39 511.76L374.15 511.84L373.9 511.91L373.65 511.97L373.39 512.02L373.13 512.06L372.86 512.08L372.6 512.1L372.33 512.11L267.67 512.11L267.4 512.1L267.14 512.08L266.87 512.06L266.61 512.02L266.35 511.97L266.1 511.91L265.85 511.84L265.61 511.76L265.36 511.68L265.13 511.58L264.89 511.47L264.67 511.36L264.44 511.24L264.23 511.1L264.02 510.96L263.81 510.82L263.61 510.66L263.42 510.5L263.23 510.33L263.05 510.15L262.87 509.96L262.71 509.77L262.55 509.57L262.39 509.37L262.25 509.16L262.11 508.94L261.98 508.72L261.86 508.5L261.75 508.26L261.65 508.03L261.55 507.78L261.46 507.54L261.39 507.29L261.32 507.03L261.26 506.77L261.22 506.51L261.18 506.24L261.15 505.98L261.14 505.7L261.13 505.43L261.13 371.88L130.31 371.88L130.04 371.88L129.78 371.86L129.51 371.84L129.25 371.8L128.99 371.75L128.74 371.69L128.49 371.62L128.24 371.54L128 371.46L127.77 371.36L127.53 371.25L127.31 371.14L127.08 371.02L126.87 370.88L126.66 370.74L126.45 370.6L126.25 370.44L126.06 370.28L125.87 370.11L125.69 369.93L125.51 369.74L125.35 369.55L125.19 369.35L125.03 369.15L124.89 368.94L124.75 368.72L124.62 368.5L124.5 368.28L124.39 368.04L124.28 367.81L124.19 367.56L124.1 367.32L124.03 367.07L123.96 366.81L123.9 366.55L123.86 366.29L123.82 366.02L123.79 365.75L123.78 365.48L123.77 365.21L123.77 258.37L123.78 258.1L123.79 257.83L123.82 257.56L123.86 257.29L123.9 257.03L123.96 256.77L124.03 256.51L124.1 256.26L124.19 256.02L124.28 255.78L124.39 255.54L124.5 255.31L124.62 255.08L124.75 254.86L124.89 254.64L125.03 254.43L125.19 254.23L125.35 254.03L125.51 253.84L125.69 253.65L125.87 253.47L126.06 253.3L126.25 253.14L126.45 252.98L126.66 252.84L126.87 252.7L127.08 252.57L127.31 252.44L127.53 252.33L127.77 252.22L128 252.12L128.24 252.04L128.49 251.96L128.74 251.89L128.99 251.83L129.25 251.78L129.51 251.75L129.78 251.72L130.04 251.7L130.31 251.7L261.13 251.7L261.13 118.15L261.14 117.88L261.15 117.61L261.18 117.34L261.22 117.07L261.26 116.81L261.32 116.55L261.39 116.29L261.46 116.04L261.55 115.8L261.65 115.55L261.75 115.32L261.86 115.09L261.98 114.86L262.11 114.64L262.25 114.42L262.39 114.21L262.55 114.01L262.71 113.81L262.87 113.62L263.05 113.43L263.23 113.25L263.42 113.08L263.61 112.92L263.81 112.76L264.02 112.62L264.23 112.48L264.44 112.34L264.67 112.22L264.89 112.11L265.13 112L265.36 111.9L265.61 111.82L265.85 111.74L266.1 111.67L266.35 111.61L266.61 111.56L266.87 111.52L267.14 111.5L267.4 111.48L267.67 111.48L372.33 111.48L372.6 111.48L372.86 111.5Z" id="kA3kDzR9b"></path></defs><g><g><g><use xlink:href="#b1bDkOxC0N" opacity="1" fill="#1d1e26" fill-opacity="1"></use></g><g><use xlink:href="#kA3kDzR9b" opacity="1" fill="#1d1e26" fill-opacity="1"></use></g></g></g></svg>