<?xml version="1.0" encoding="UTF-8" standalone="no"?>
<!DOCTYPE svg PUBLIC "-//W3C//DTD SVG 1.1//EN" "http://www.w3.org/Graphics/SVG/1.1/DTD/svg11.dtd">
<svg version="1.1" xmlns="http://www.w3.org/2000/svg" xmlns:xlink="http://www.w3.org/1999/xlink" preserveAspectRatio="xMidYMid meet" viewBox="0 0 640 640" width="640" height="640"><defs><path d="M173.58 145.55L375.77 145.55L375.77 442.63L173.58 442.63L173.58 145.55Z" id="b1FKYkCCvJ"></path><path d="M330.88 198.1C335.11 198.1 338.54 201.53 338.54 205.77C338.54 207.3 338.54 204.23 338.54 205.77C338.54 210 335.11 213.43 330.88 213.43C306.86 213.43 242.48 213.43 218.47 213.43C214.23 213.43 210.8 210 210.8 205.77C210.8 204.23 210.8 207.3 210.8 205.77C210.8 201.53 214.23 198.1 218.47 198.1C242.48 198.1 306.86 198.1 330.88 198.1Z" id="b5byOGcgJW"></path><path d="M330.88 234.38C335.11 234.38 338.54 237.81 338.54 242.04C338.54 243.58 338.54 240.51 338.54 242.04C338.54 246.28 335.11 249.71 330.88 249.71C306.86 249.71 242.48 249.71 218.47 249.71C214.23 249.71 210.8 246.28 210.8 242.04C210.8 240.51 210.8 243.58 210.8 242.04C210.8 237.81 214.23 234.38 218.47 234.38C242.48 234.38 306.86 234.38 330.88 234.38Z" id="a24PQt615w"></path><path d="M330.88 269.93C335.11 269.93 338.54 273.36 338.54 277.59C338.54 279.12 338.54 276.06 338.54 277.59C338.54 281.82 335.11 285.26 330.88 285.26C306.86 285.26 242.48 285.26 218.47 285.26C214.23 285.26 210.8 281.82 210.8 277.59C210.8 276.06 210.8 279.12 210.8 277.59C210.8 273.36 214.23 269.93 218.47 269.93C242.48 269.93 306.86 269.93 330.88 269.93Z" id="b2ck2gzeyU"></path><path d="M330.88 302.26C335.11 302.26 338.54 305.69 338.54 309.93C338.54 311.46 338.54 308.39 338.54 309.93C338.54 314.16 335.11 317.59 330.88 317.59C306.86 317.59 242.48 317.59 218.47 317.59C214.23 317.59 210.8 314.16 210.8 309.93C210.8 308.39 210.8 311.46 210.8 309.93C210.8 305.69 214.23 302.26 218.47 302.26C242.48 302.26 306.86 302.26 330.88 302.26Z" id="d9k6eltPF2"></path><path d="M330.88 332.92C335.11 332.92 338.54 336.35 338.54 340.58C338.54 342.12 338.54 339.05 338.54 340.58C338.54 344.82 335.11 348.25 330.88 348.25C306.86 348.25 242.48 348.25 218.47 348.25C214.23 348.25 210.8 344.82 210.8 340.58C210.8 339.05 210.8 342.12 210.8 340.58C210.8 336.35 214.23 332.92 218.47 332.92C242.48 332.92 306.86 332.92 330.88 332.92Z" id="bLVkoSHCo"></path><path d="M255.69 205.77L457.88 205.77L457.88 502.85L255.69 502.85L255.69 205.77Z" id="bj9hrh6Cs"></path><path d="M412.99 258.32C417.23 258.32 420.66 261.75 420.66 265.99C420.66 267.52 420.66 264.45 420.66 265.99C420.66 270.22 417.23 273.65 412.99 273.65C388.98 273.65 324.6 273.65 300.58 273.65C296.35 273.65 292.92 270.22 292.92 265.99C292.92 264.45 292.92 267.52 292.92 265.99C292.92 261.75 296.35 258.32 300.58 258.32C324.6 258.32 388.98 258.32 412.99 258.32Z" id="b4Kna20owO"></path><path d="M412.99 294.6C417.23 294.6 420.66 298.03 420.66 302.26C420.66 303.8 420.66 300.73 420.66 302.26C420.66 306.5 417.23 309.93 412.99 309.93C388.98 309.93 324.6 309.93 300.58 309.93C296.35 309.93 292.92 306.5 292.92 302.26C292.92 300.73 292.92 303.8 292.92 302.26C292.92 298.03 296.35 294.6 300.58 294.6C324.6 294.6 388.98 294.6 412.99 294.6Z" id="fm3ShopZa"></path><path d="M412.99 330.15C417.23 330.15 420.66 333.58 420.66 337.81C420.66 339.34 420.66 336.28 420.66 337.81C420.66 342.04 417.23 345.47 412.99 345.47C388.98 345.47 324.6 345.47 300.58 345.47C296.35 345.47 292.92 342.04 292.92 337.81C292.92 336.28 292.92 339.34 292.92 337.81C292.92 333.58 296.35 330.15 300.58 330.15C324.6 330.15 388.98 330.15 412.99 330.15Z" id="c5sqMAfDvP"></path><path d="M412.99 363.43C417.23 363.43 420.66 366.86 420.66 371.09C420.66 372.63 420.66 369.56 420.66 371.09C420.66 375.33 417.23 378.76 412.99 378.76C388.98 378.76 324.6 378.76 300.58 378.76C296.35 378.76 292.92 375.33 292.92 371.09C292.92 369.56 292.92 372.63 292.92 371.09C292.92 366.86 296.35 363.43 300.58 363.43C324.6 363.43 388.98 363.43 412.99 363.43Z" id="a1T4FbyzOf"></path><path d="M412.99 395.33C417.23 395.33 420.66 398.76 420.66 402.99C420.66 404.53 420.66 401.46 420.66 402.99C420.66 407.23 417.23 410.66 412.99 410.66C388.98 410.66 324.6 410.66 300.58 410.66C296.35 410.66 292.92 407.23 292.92 402.99C292.92 401.46 292.92 404.53 292.92 402.99C292.92 398.76 296.35 395.33 300.58 395.33C324.6 395.33 388.98 395.33 412.99 395.33Z" id="b6rx8etvD1"></path><path d="M327.59 167.45L327.59 166.72L327.59 166.72L327.59 167.45Z" id="apbIgOYuG"></path></defs><g><g><g><use xlink:href="#b1FKYkCCvJ" opacity="1" fill="#ffffff" fill-opacity="1"></use><g><use xlink:href="#b1FKYkCCvJ" opacity="1" fill-opacity="0" stroke="#000000" stroke-width="15" stroke-opacity="1"></use></g></g><g><use xlink:href="#b5byOGcgJW" opacity="1" fill="#000000" fill-opacity="1"></use></g><g><use xlink:href="#a24PQt615w" opacity="1" fill="#000000" fill-opacity="1"></use></g><g><use xlink:href="#b2ck2gzeyU" opacity="1" fill="#000000" fill-opacity="1"></use></g><g><use xlink:href="#d9k6eltPF2" opacity="1" fill="#000000" fill-opacity="1"></use></g><g><use xlink:href="#bLVkoSHCo" opacity="1" fill="#000000" fill-opacity="1"></use></g><g><use xlink:href="#bj9hrh6Cs" opacity="1" fill="#ffffff" fill-opacity="1"></use><g><use xlink:href="#bj9hrh6Cs" opacity="1" fill-opacity="0" stroke="#000000" stroke-width="15" stroke-opacity="1"></use></g></g><g><use xlink:href="#b4Kna20owO" opacity="1" fill="#000000" fill-opacity="1"></use></g><g><use xlink:href="#fm3ShopZa" opacity="1" fill="#000000" fill-opacity="1"></use></g><g><use xlink:href="#c5sqMAfDvP" opacity="1" fill="#000000" fill-opacity="1"></use></g><g><use xlink:href="#a1T4FbyzOf" opacity="1" fill="#000000" fill-opacity="1"></use></g><g><use xlink:href="#b6rx8etvD1" opacity="1" fill="#000000" fill-opacity="1"></use></g><g><use xlink:href="#apbIgOYuG" opacity="1" fill="#5d3c71" fill-opacity="1"></use></g></g></g></svg>