<?xml version="1.0" encoding="UTF-8" standalone="no"?>
<!DOCTYPE svg PUBLIC "-//W3C//DTD SVG 1.1//EN" "http://www.w3.org/Graphics/SVG/1.1/DTD/svg11.dtd">
<svg version="1.1" xmlns="http://www.w3.org/2000/svg" xmlns:xlink="http://www.w3.org/1999/xlink" preserveAspectRatio="xMidYMid meet" viewBox="0 0 640 640" width="120" height="120"><defs><path d="M223.55 282.98C228.36 279.1 235.42 279.92 239.21 284.8C260.13 311.72 315.97 383.59 336.88 410.51C340.72 415.44 339.89 422.54 335.03 426.46C315.33 442.36 264.98 482.99 245.28 498.88C240.47 502.77 233.41 501.95 229.61 497.07C208.7 470.15 152.86 398.27 131.94 371.36C128.11 366.42 128.93 359.33 133.8 355.4C153.5 339.51 203.85 298.88 223.55 282.98Z" id="ak1YxAB2l"></path><path d="M539.01 254.33C543.49 260.14 542.5 268.46 536.78 273.05C497.12 304.87 388.44 392.04 348.78 423.85C343.12 428.39 334.84 427.41 330.4 421.67C307.89 392.52 248.42 315.52 225.9 286.37C221.42 280.57 222.41 272.24 228.13 267.65C267.79 235.84 376.47 148.66 416.13 116.85C421.79 112.31 430.07 113.3 434.51 119.04C457.02 148.19 516.49 225.18 539.01 254.33Z" id="dliOPVWNF"></path></defs><g><g><g><use xlink:href="#ak1YxAB2l" opacity="1" fill="#ffffff" fill-opacity="1"></use><g><use xlink:href="#ak1YxAB2l" opacity="1" fill-opacity="0" stroke="#000000" stroke-width="15" stroke-opacity="1"></use></g></g><g><use xlink:href="#dliOPVWNF" opacity="1" fill="#202129" fill-opacity="1"></use></g></g></g></svg>