<?xml version="1.0" encoding="UTF-8" standalone="no"?>
<!DOCTYPE svg PUBLIC "-//W3C//DTD SVG 1.1//EN" "http://www.w3.org/Graphics/SVG/1.1/DTD/svg11.dtd">
<svg version="1.1" xmlns="http://www.w3.org/2000/svg" xmlns:xlink="http://www.w3.org/1999/xlink" preserveAspectRatio="xMidYMid meet" viewBox="0 0 640 640" width="640" height="640"><defs><path d="M371.76 204.19L371.77 203.82L371.79 203.46L371.83 203.1L371.88 202.74L371.94 202.39L372.01 202.05L372.1 201.71L372.2 201.37L372.32 201.04L372.44 200.72L372.58 200.4L372.73 200.09L372.89 199.79L373.06 199.49L373.24 199.21L373.43 198.93L373.63 198.65L373.84 198.39L374.06 198.13L374.29 197.89L374.53 197.65L374.78 197.42L375.03 197.2L375.3 197L375.57 196.8L375.85 196.61L376.13 196.44L376.43 196.27L376.73 196.12L377.03 195.98L377.35 195.85L377.66 195.73L377.99 195.63L378.32 195.54L378.65 195.46L378.99 195.39L379.33 195.34L379.68 195.31L380.03 195.28L380.39 195.28L414.9 195.28L415.25 195.28L415.6 195.31L415.95 195.34L416.3 195.39L416.64 195.46L416.97 195.54L417.3 195.63L417.62 195.73L417.94 195.85L418.25 195.98L418.56 196.12L418.86 196.27L419.15 196.44L419.44 196.61L419.72 196.8L419.99 197L420.25 197.2L420.51 197.42L420.76 197.65L421 197.89L421.23 198.13L421.45 198.39L421.66 198.65L421.86 198.93L422.05 199.21L422.23 199.49L422.4 199.79L422.56 200.09L422.71 200.4L422.85 200.72L422.97 201.04L423.08 201.37L423.19 201.71L423.27 202.05L423.35 202.39L423.41 202.74L423.46 203.1L423.5 203.46L423.52 203.82L423.52 204.19L423.52 297.73L458.03 337.82L423.52 337.82L423.52 462.54L346.71 462.54L346.71 462.52L346.72 462.12L346.72 375.6L346.71 375.2L346.69 374.81L346.65 374.42L346.6 374.04L346.53 373.66L346.46 373.29L346.37 372.92L346.26 372.56L346.14 372.2L346.02 371.85L345.87 371.51L345.72 371.18L345.56 370.85L345.38 370.53L345.19 370.22L345 369.92L344.79 369.62L344.57 369.34L344.34 369.06L344.11 368.8L343.86 368.54L343.6 368.3L343.34 368.06L343.07 367.84L342.79 367.62L342.5 367.42L342.2 367.23L341.9 367.05L341.59 366.89L341.28 366.74L340.95 366.6L340.62 366.47L340.29 366.36L339.95 366.26L339.6 366.18L339.25 366.11L338.9 366.05L338.54 366.01L338.18 365.99L337.81 365.98L302.19 365.98L301.82 365.99L301.46 366.01L301.1 366.05L300.75 366.11L300.4 366.18L300.05 366.26L299.71 366.36L299.38 366.47L299.05 366.6L298.72 366.74L298.41 366.89L298.1 367.05L297.8 367.23L297.5 367.42L297.21 367.62L296.93 367.84L296.66 368.06L296.4 368.3L296.14 368.54L295.89 368.8L295.66 369.06L295.43 369.34L295.21 369.62L295 369.92L294.81 370.22L294.62 370.53L294.44 370.85L294.28 371.18L294.13 371.51L293.98 371.85L293.86 372.2L293.74 372.56L293.63 372.92L293.54 373.29L293.47 373.66L293.4 374.04L293.35 374.42L293.31 374.81L293.29 375.2L293.28 375.6L293.28 462.12L293.29 462.52L293.29 462.54L216.48 462.54L216.48 337.82L181.97 337.82L320 177.46L371.76 237.59L371.76 204.19Z" id="b4KZ9GkTMB"></path></defs><g><g><g><use xlink:href="#b4KZ9GkTMB" opacity="1" fill="#000000" fill-opacity="1"></use><g><use xlink:href="#b4KZ9GkTMB" opacity="1" fill-opacity="0" stroke="#ffffff" stroke-width="10" stroke-opacity="1"></use></g></g></g></g></svg>