<?xml version="1.0" encoding="UTF-8" standalone="no"?>
<!DOCTYPE svg PUBLIC "-//W3C//DTD SVG 1.1//EN" "http://www.w3.org/Graphics/SVG/1.1/DTD/svg11.dtd">
<svg version="1.1" xmlns="http://www.w3.org/2000/svg" xmlns:xlink="http://www.w3.org/1999/xlink" preserveAspectRatio="xMidYMid meet" viewBox="0 0 640 640" width="120" height="120"><defs><path d="M173.28 201.75C173.28 212.79 164.32 221.75 153.28 221.75C142.25 221.75 133.28 212.79 133.28 201.75C133.28 190.71 142.25 181.75 153.28 181.75C164.32 181.75 173.28 190.71 173.28 201.75Z" id="dwDqPaSrj"></path><path d="M177.96 258.4C177.96 269.43 168.99 278.4 157.96 278.4C146.92 278.4 137.96 269.43 137.96 258.4C137.96 247.36 146.92 238.4 157.96 238.4C168.99 238.4 177.96 247.36 177.96 258.4Z" id="a4dkmRjtF"></path><path d="M229.49 162.36C229.49 173.4 220.53 182.36 209.49 182.36C198.45 182.36 189.49 173.4 189.49 162.36C189.49 151.32 198.45 142.36 209.49 142.36C220.53 142.36 229.49 151.32 229.49 162.36Z" id="b3aRngCBn9"></path><path d="M229.31 271.82C229.41 271.82 229.49 271.91 229.49 272.01C229.49 272.29 229.12 272.42 229.12 272.43C229.12 272.43 229.12 272.43 229.12 272.43C229.12 272.42 228.76 272.29 228.76 272.01C228.76 271.91 228.84 271.82 228.94 271.82C229.04 271.82 229.12 271.9 229.12 272C229.12 271.9 229.21 271.82 229.31 271.82Z" id="eiMyN8Vwx"></path><path d="M230.22 240.54C234.48 244.05 234.51 251.05 230.29 256.17C218.61 270.34 197.38 264.64 197.06 265.03C197.06 265.03 197.06 265.03 197.06 265.03C197.38 264.64 187.75 244.89 199.44 230.71C203.66 225.6 210.53 224.3 214.79 227.81C219.05 231.33 219.51 237.81 215.29 242.93C219.51 237.81 225.96 237.02 230.22 240.54Z" id="cglIlb5vz"></path><path d="M295 172.3C297.26 174.87 297.02 178.77 294.45 181.03C278.59 195.02 235.63 232.89 219.76 246.88C217.2 249.14 213.29 248.89 211.03 246.33C210.22 245.4 211.85 247.26 211.03 246.33C208.78 243.77 209.02 239.86 211.58 237.6C227.45 223.62 270.41 185.74 286.28 171.75C288.84 169.5 292.75 169.74 295 172.3C295.82 173.23 294.19 171.38 295 172.3Z" id="brz3VIVTp"></path><path d="M233.63 302.99C233.63 314.03 224.67 322.99 213.63 322.99C202.59 322.99 193.63 314.03 193.63 302.99C193.63 291.95 202.59 282.99 213.63 282.99C224.67 282.99 233.63 291.95 233.63 302.99Z" id="c1mfNshUbf"></path></defs><g><g><g><use xlink:href="#dwDqPaSrj" opacity="1" fill="#007704" fill-opacity="1"></use></g><g><use xlink:href="#a4dkmRjtF" opacity="1" fill="#0021ff" fill-opacity="1"></use></g><g><use xlink:href="#b3aRngCBn9" opacity="1" fill="#ff0000" fill-opacity="1"></use></g><g><use xlink:href="#eiMyN8Vwx" opacity="1" fill="#cdbbe8" fill-opacity="1"></use></g><g><use xlink:href="#cglIlb5vz" opacity="1" fill="#ffffff" fill-opacity="1"></use><g><use xlink:href="#cglIlb5vz" opacity="1" fill-opacity="0" stroke="#000000" stroke-width="1" stroke-opacity="1"></use></g></g><g><use xlink:href="#brz3VIVTp" opacity="1" fill="#000000" fill-opacity="1"></use></g><g><use xlink:href="#c1mfNshUbf" opacity="1" fill="#000000" fill-opacity="1"></use></g></g></g></svg>